# xmcd
#
# Track frame offsets:
#	150
#	13805
#	28276
#	43792
#	58620
#	71906
#	89749
#	98660
#	112253
#	123885
#	139155
#	155121
#	169709
#	180956
#	201368
#	211550
#	225762
#	232865
#	245034
#	255927
#
# Disc length: 3615 seconds
#
# Revision: 2
# Processed by: cddbd v1.5.2PL0 Copyright (c) Steve Scherf et al.
# Submitted via: EasyCDDAExtractor 2010.6.0.0
#
DISCID=130e1d14
DTITLE=Трофим - The Best Of
DYEAR=2009
DGENRE=Chanson
TTITLE0=Снегири
TTITLE1=Дайте мне чего-нибудь
TTITLE2=В такую тьму
TTITLE3=Аристократия помойки
TTITLE4=Петушки
TTITLE5=Скажи мне милая
TTITLE6=Юбилей
TTITLE7=Моя жена
TTITLE8=ТВ-новости
TTITLE9=Моему другу
TTITLE10=Вот комедия какая
TTITLE11=Эх, родная
TTITLE12=Минеты
TTITLE13=Танька
TTITLE14=Ах, эти ночи
TTITLE15=Братва
TTITLE16=Алкаш
TTITLE17=Алевтина
TTITLE18=Вот и все
TTITLE19=По самому краю
EXTD=
EXTT0=
EXTT1=
EXTT2=
EXTT3=
EXTT4=
EXTT5=
EXTT6=
EXTT7=
EXTT8=
EXTT9=
EXTT10=
EXTT11=
EXTT12=
EXTT13=
EXTT14=
EXTT15=
EXTT16=
EXTT17=
EXTT18=
EXTT19=
PLAYORDER=
